<?xml version="1.0" encoding="UTF-8" standalone="no"?>
<!DOCTYPE svg PUBLIC "-//W3C//DTD SVG 1.1//EN" "http://www.w3.org/Graphics/SVG/1.1/DTD/svg11.dtd">
<svg width="100%" height="100%" viewBox="0 0 24 24" version="1.1" xmlns="http://www.w3.org/2000/svg" xmlns:xlink="http://www.w3.org/1999/xlink" xml:space="preserve" xmlns:serif="http://www.serif.com/" style="fill-rule:evenodd;clip-rule:evenodd;stroke-linejoin:round;stroke-miterlimit:1.41421;">
    <g id="Forma-1" serif:id="Forma 1" transform="matrix(1.38381,0,0,1.38381,-395.969,-32.0257)">
        <path d="M302.615,38.675L298.77,34.83C299.723,33.668 300.297,32.18 300.297,30.558C300.297,26.837 297.279,23.819 293.558,23.819C289.834,23.819 286.819,26.837 286.819,30.558C286.819,34.278 289.834,37.297 293.558,37.297C295.18,37.297 296.665,36.726 297.827,35.773L301.671,39.614C301.932,39.876 302.354,39.876 302.615,39.614C302.876,39.356 302.876,38.932 302.615,38.675ZM293.558,35.956C290.579,35.956 288.157,33.534 288.157,30.558C288.157,27.581 290.579,25.157 293.558,25.157C296.534,25.157 298.959,27.581 298.959,30.558C298.959,33.534 296.534,35.956 293.558,35.956Z" style="fill:rgb(147,147,147);fill-rule:nonzero;"/>
    </g>
</svg>
