<?xml version="1.0" encoding="UTF-8" standalone="no"?>
<!DOCTYPE svg PUBLIC "-//W3C//DTD SVG 1.1//EN" "http://www.w3.org/Graphics/SVG/1.1/DTD/svg11.dtd">
<svg width="100%" height="100%" viewBox="0 0 10 11" version="1.1" xmlns="http://www.w3.org/2000/svg" xmlns:xlink="http://www.w3.org/1999/xlink" xml:space="preserve" xmlns:serif="http://www.serif.com/" style="fill-rule:evenodd;clip-rule:evenodd;stroke-linejoin:round;stroke-miterlimit:1.41421;">
    <g transform="matrix(1,0,0,1,-1464,-869.999)">
        <g>
            <path id="Ellipse-4" serif:id="Ellipse 4" d="M1465,877.999C1465.55,877.999 1466,878.447 1466,878.999C1466,879.551 1465.55,879.999 1465,879.999C1464.45,879.999 1464,879.551 1464,878.999C1464,878.447 1464.45,877.999 1465,877.999Z" style="fill:rgb(147,147,147);"/>
            <path id="Ellipse-4-copy" serif:id="Ellipse 4 copy" d="M1469,877.999C1469.55,877.999 1470,878.447 1470,878.999C1470,879.551 1469.55,879.999 1469,879.999C1468.45,879.999 1468,879.551 1468,878.999C1468,878.447 1468.45,877.999 1469,877.999Z" style="fill:rgb(147,147,147);"/>
            <path id="Ellipse-4-copy-3" serif:id="Ellipse 4 copy 3" d="M1474,870.999C1474,871.551 1473.55,871.999 1473,871.999C1472.45,871.999 1472,871.551 1472,870.999C1472,870.447 1472.45,869.999 1473,869.999C1473.55,869.999 1474,870.447 1474,870.999Z" style="fill:rgb(147,147,147);"/>
            <path id="Ellipse-4-copy-4" serif:id="Ellipse 4 copy 4" d="M1474,874.999C1474,875.551 1473.55,875.999 1473,875.999C1472.45,875.999 1472,875.551 1472,874.999C1472,874.447 1472.45,873.999 1473,873.999C1473.55,873.999 1474,874.447 1474,874.999Z" style="fill:rgb(147,147,147);"/>
            <path id="Ellipse-4-copy-5" serif:id="Ellipse 4 copy 5" d="M1470,874.999C1470,875.551 1469.55,875.999 1469,875.999C1468.45,875.999 1468,875.551 1468,874.999C1468,874.447 1468.45,873.999 1469,873.999C1469.55,873.999 1470,874.447 1470,874.999Z" style="fill:rgb(147,147,147);"/>
            <path id="Ellipse-4-copy-2" serif:id="Ellipse 4 copy 2" d="M1473,877.999C1473.55,877.999 1474,878.447 1474,878.999C1474,879.551 1473.55,879.999 1473,879.999C1472.45,879.999 1472,879.551 1472,878.999C1472,878.447 1472.45,877.999 1473,877.999Z" style="fill:rgb(147,147,147);"/>
        </g>
    </g>
</svg>
