<?xml version="1.0" encoding="UTF-8" standalone="no"?>
<!DOCTYPE svg PUBLIC "-//W3C//DTD SVG 1.1//EN" "http://www.w3.org/Graphics/SVG/1.1/DTD/svg11.dtd">
<svg width="100%" height="100%" viewBox="0 0 30 30" version="1.1" xmlns="http://www.w3.org/2000/svg" xmlns:xlink="http://www.w3.org/1999/xlink" xml:space="preserve" xmlns:serif="http://www.serif.com/" style="fill-rule:evenodd;clip-rule:evenodd;stroke-linejoin:round;stroke-miterlimit:1.41421;">
    <g id="Forma-1" serif:id="Forma 1" transform="matrix(1,0,0,1,-23.7785,-298.843)">
        <path d="M41.61,306.477L41.61,305.91C41.61,305.57 41.837,305.344 42.177,305.344C42.516,305.344 42.743,305.57 42.743,305.91L42.743,306.477L45.009,306.477C46.594,306.477 47.84,307.723 47.84,309.31L47.84,319.509C47.84,321.095 46.594,322.342 45.009,322.342L32.548,322.342C30.962,322.342 29.717,321.095 29.717,319.509L29.717,309.31C29.717,307.724 30.961,306.478 32.548,306.477L34.814,306.477L34.814,305.91C34.814,305.57 35.04,305.344 35.38,305.344C35.72,305.344 35.947,305.57 35.947,305.91L35.947,306.477L41.61,306.477ZM45.009,321.209C45.916,321.208 46.708,320.415 46.708,319.509L46.708,312.143L30.849,312.143L30.849,319.509C30.849,320.415 31.642,321.209 32.548,321.209L45.009,321.209ZM40.477,319.509C40.817,319.509 41.044,319.396 41.27,319.169C41.497,318.942 41.61,318.716 41.61,318.376C41.61,318.036 41.497,317.809 41.27,317.582C40.817,317.129 40.138,317.129 39.685,317.582C39.458,317.809 39.345,318.149 39.345,318.376C39.345,318.602 39.458,318.942 39.685,319.169C39.911,319.396 40.138,319.509 40.477,319.509ZM33.681,319.509C34.021,319.509 34.247,319.396 34.474,319.169C34.701,318.942 34.814,318.602 34.814,318.376C34.814,318.149 34.701,317.809 34.474,317.582C34.021,317.129 33.341,317.129 32.888,317.582C32.662,317.809 32.548,318.036 32.548,318.376C32.548,318.602 32.662,318.942 32.888,319.169C33.115,319.396 33.341,319.509 33.681,319.509ZM37.079,319.509C37.419,319.509 37.646,319.396 37.872,319.169C38.099,318.942 38.212,318.602 38.212,318.376C38.212,318.149 38.099,317.809 37.872,317.582C37.419,317.129 36.74,317.129 36.286,317.582C36.06,317.809 35.947,318.149 35.947,318.376C35.947,318.602 36.06,318.942 36.286,319.169C36.513,319.396 36.74,319.509 37.079,319.509ZM43.876,319.509C44.216,319.509 44.442,319.396 44.669,319.169C44.895,318.942 45.009,318.602 45.009,318.376C45.009,318.149 44.895,317.809 44.669,317.582C44.216,317.129 43.536,317.129 43.083,317.582C42.856,317.809 42.743,318.036 42.743,318.376C42.743,318.602 42.856,318.942 43.083,319.169C43.309,319.396 43.536,319.509 43.876,319.509ZM40.477,316.109C40.817,316.109 41.044,315.996 41.27,315.769C41.497,315.543 41.61,315.316 41.61,314.976C41.61,314.749 41.497,314.409 41.27,314.183C40.817,313.729 40.138,313.729 39.685,314.183C39.458,314.409 39.345,314.749 39.345,314.976C39.345,315.203 39.458,315.543 39.685,315.769C39.911,315.996 40.138,316.109 40.477,316.109ZM33.681,316.109C34.021,316.109 34.247,315.996 34.474,315.769C34.701,315.543 34.814,315.203 34.814,314.976C34.814,314.749 34.701,314.409 34.474,314.183C34.021,313.729 33.341,313.729 32.888,314.183C32.662,314.409 32.548,314.636 32.548,314.976C32.548,315.316 32.662,315.543 32.888,315.769C33.115,315.996 33.341,316.109 33.681,316.109ZM37.079,316.109C37.419,316.109 37.646,315.996 37.872,315.769C38.099,315.543 38.212,315.203 38.212,314.976C38.212,314.749 38.099,314.409 37.872,314.183C37.419,313.729 36.74,313.729 36.286,314.183C36.06,314.409 35.947,314.749 35.947,314.976C35.947,315.203 36.06,315.543 36.286,315.769C36.513,315.996 36.74,316.109 37.079,316.109ZM43.876,316.109C44.216,316.109 44.442,315.996 44.669,315.769C44.895,315.543 45.009,315.316 45.009,314.976C45.009,314.749 44.895,314.409 44.669,314.183C44.216,313.729 43.536,313.729 43.083,314.183C42.856,314.409 42.743,314.749 42.743,314.976C42.743,315.203 42.856,315.543 43.083,315.769C43.309,315.996 43.536,316.109 43.876,316.109ZM46.708,311.01L46.708,309.31C46.708,308.403 45.915,307.61 45.009,307.61L42.743,307.61L42.743,308.177C42.743,308.517 42.517,308.743 42.177,308.743C41.837,308.743 41.61,308.517 41.61,308.177L41.61,307.61L35.947,307.61L35.947,308.177C35.947,308.517 35.72,308.743 35.38,308.743C35.04,308.743 34.814,308.517 34.814,308.177L34.814,307.61L32.548,307.61C31.642,307.61 30.849,308.403 30.849,309.31L30.849,311.01L46.708,311.01Z" style="fill:rgb(85,37,165);"/>
    </g>
</svg>
