<?xml version="1.0" encoding="UTF-8" standalone="no"?>
<!DOCTYPE svg PUBLIC "-//W3C//DTD SVG 1.1//EN" "http://www.w3.org/Graphics/SVG/1.1/DTD/svg11.dtd">
<svg width="100%" height="100%" viewBox="0 0 24 18" version="1.1" xmlns="http://www.w3.org/2000/svg" xmlns:xlink="http://www.w3.org/1999/xlink" xml:space="preserve" xmlns:serif="http://www.serif.com/" style="fill-rule:evenodd;clip-rule:evenodd;stroke-linejoin:round;stroke-miterlimit:1.41421;">
    <g transform="matrix(0.765855,0,0,0.797668,6.65732,-195.476)">
        <g transform="matrix(0.0599255,0,0,0.0599255,-8.20409,241.288)">
            <path d="M366.292,215.99L241.417,325.781C241.25,325.927 241.084,326.073 240.938,326.229C236.896,330.25 234.667,335.614 234.667,341.333C234.667,353.093 244.23,362.666 256,362.666C261.667,362.666 267.021,360.458 271.563,355.916L381.355,231.041C385.063,226.822 384.855,220.437 380.876,216.458C376.896,212.49 370.542,212.281 366.292,215.99Z" style="fill:rgb(85,85,85);fill-rule:nonzero;"/>
        </g>
        <g transform="matrix(0.0574066,0,0,0.0525796,-7.71998,242.881)">
            <path d="M256,85.333C114.833,85.333 0,200.177 0,341.333C0,367.812 4.104,394.021 12.167,419.25C13.584,423.667 17.688,426.667 22.334,426.667L489.667,426.667C494.313,426.667 498.417,423.667 499.834,419.25C507.896,394.021 512,367.813 512,341.333C512,200.177 397.167,85.333 256,85.333ZM458.667,352L489.927,352C489.103,370.04 486.69,387.947 481.75,405.333L30.25,405.333C25.31,387.946 22.897,370.04 22.073,352L53.333,352C59.229,352 64,347.229 64,341.333C64,335.437 59.229,330.666 53.333,330.666L21.873,330.666C23.454,295.747 32.553,262.801 47.821,233.458L75.145,249.239C76.833,250.208 78.666,250.666 80.478,250.666C84.145,250.666 87.749,248.76 89.707,245.333C92.665,240.229 90.915,233.708 85.811,230.76L58.548,215.014C76.871,186.475 101.15,162.198 129.69,143.876L145.436,171.156C147.394,174.573 150.999,176.489 154.665,176.489C156.478,176.489 158.311,176.031 159.998,175.062C165.102,172.114 166.852,165.593 163.894,160.489L148.117,133.157C177.462,117.887 210.41,108.787 245.332,107.206L245.332,138.666C245.332,144.562 250.103,149.333 255.999,149.333C261.895,149.333 266.666,144.562 266.666,138.666L266.666,107.206C301.588,108.787 334.536,117.887 363.881,133.157L348.104,160.489C345.146,165.593 346.896,172.114 352,175.062C353.688,176.031 355.521,176.489 357.333,176.489C361,176.489 364.604,174.572 366.562,171.156L382.308,143.876C410.848,162.198 435.127,186.475 453.45,215.014L426.187,230.76C421.083,233.708 419.333,240.229 422.291,245.333C424.249,248.76 427.854,250.666 431.52,250.666C433.332,250.666 435.166,250.208 436.853,249.239L464.177,233.458C479.445,262.802 488.544,295.747 490.125,330.666L458.665,330.666C452.769,330.666 447.998,335.437 447.998,341.333C448,347.229 452.771,352 458.667,352Z" style="fill:rgb(85,85,85);fill-rule:nonzero;"/>
        </g>
    </g>
</svg>
