<?xml version="1.0" encoding="UTF-8" standalone="no"?>
<!DOCTYPE svg PUBLIC "-//W3C//DTD SVG 1.1//EN" "http://www.w3.org/Graphics/SVG/1.1/DTD/svg11.dtd">
<svg width="100%" height="100%" viewBox="0 0 30 30" version="1.1" xmlns="http://www.w3.org/2000/svg" xmlns:xlink="http://www.w3.org/1999/xlink" xml:space="preserve" xmlns:serif="http://www.serif.com/" style="fill-rule:evenodd;clip-rule:evenodd;">
    <g transform="matrix(0.183418,0,0,0.198236,12.2295,8.88363)">
        <g transform="matrix(1,0,0,1,-44.5,-20.5)">
            <path d="M23.252,55.022L23.252,96.754L95.632,96.754L95.632,55.022M23.252,55.022L95.632,55.022M23.252,55.022L10.537,55.022L24.556,41.002M95.632,55.022L108.673,55.022L59.605,5.954L39.88,25.679M24.556,41.002L24.556,11.007L39.88,11.007L39.88,25.679M24.556,41.002L39.88,25.679" style="fill:none;stroke:rgb(85,37,165);stroke-width:5.67px;"/>
        </g>
        <g transform="matrix(1,0,0,1,-44.5,-20.5)">
            <path d="M71.085,76.63C71.085,78.452 70.102,80.335 68.049,81.867C65.996,83.399 63.021,84.436 59.605,84.436C56.19,84.436 53.214,83.399 51.161,81.867C49.108,80.335 48.126,78.452 48.126,76.63C48.126,74.809 49.108,72.926 51.161,71.394C53.214,69.862 56.19,68.825 59.605,68.825C63.021,68.825 65.996,69.862 68.049,71.394C70.102,72.926 71.085,74.809 71.085,76.63Z" style="fill:none;stroke:rgb(85,37,165);stroke-width:4.32px;"/>
        </g>
    </g>
</svg>
