<?xml version="1.0" encoding="UTF-8" standalone="no"?>
<!DOCTYPE svg PUBLIC "-//W3C//DTD SVG 1.1//EN" "http://www.w3.org/Graphics/SVG/1.1/DTD/svg11.dtd">
<svg width="100%" height="100%" viewBox="0 0 20 20" version="1.1" xmlns="http://www.w3.org/2000/svg" xmlns:xlink="http://www.w3.org/1999/xlink" xml:space="preserve" xmlns:serif="http://www.serif.com/" style="fill-rule:evenodd;clip-rule:evenodd;stroke-linejoin:round;stroke-miterlimit:1.41421;">
    <g id="Forma-1" serif:id="Forma 1" transform="matrix(1,0,0,1,-1444.5,-466.5)">
        <path d="M1451.87,468.776C1452.02,467.496 1453.14,466.5 1454.5,466.5C1455.86,466.5 1456.98,467.497 1457.13,468.776L1460.18,468.776C1461.41,468.776 1462.42,469.75 1462.42,470.947L1462.42,471.058C1462.42,471.973 1461.83,472.755 1461,473.075L1461,483.329C1461,484.526 1460,485.499 1458.77,485.499L1450.23,485.499C1449,485.499 1448,484.526 1448,483.329L1448,473.074C1447.17,472.755 1446.58,471.973 1446.58,471.058L1446.58,470.947C1446.58,469.75 1447.59,468.777 1448.82,468.776L1451.87,468.776ZM1458.77,484.47C1459.41,484.47 1459.94,483.958 1459.94,483.329L1459.94,473.229L1449.06,473.229L1449.06,483.329C1449.06,483.958 1449.59,484.47 1450.23,484.47L1458.77,484.47ZM1451.66,483.153C1451.95,483.153 1452.19,482.923 1452.19,482.639L1452.19,476.843C1452.19,476.559 1451.95,476.329 1451.66,476.329C1451.36,476.329 1451.13,476.559 1451.13,476.843L1451.13,482.639C1451.13,482.923 1451.36,483.153 1451.66,483.153ZM1457.34,483.153C1457.64,483.153 1457.87,482.923 1457.87,482.639L1457.87,476.843C1457.87,476.559 1457.64,476.329 1457.34,476.329C1457.05,476.329 1456.81,476.559 1456.81,476.843L1456.81,482.639C1456.81,482.923 1457.05,483.153 1457.34,483.153ZM1454.5,483.153C1454.79,483.153 1455.03,482.923 1455.03,482.639L1455.03,476.843C1455.03,476.559 1454.79,476.329 1454.5,476.329C1454.21,476.329 1453.97,476.559 1453.97,476.843L1453.97,482.639C1453.97,482.923 1454.21,483.153 1454.5,483.153ZM1460.18,472.199C1460.83,472.199 1461.36,471.687 1461.36,471.058L1461.36,470.947C1461.36,470.317 1460.83,469.805 1460.18,469.805L1448.82,469.805C1448.17,469.805 1447.64,470.317 1447.64,470.947L1447.64,471.058C1447.64,471.687 1448.17,472.199 1448.82,472.199L1460.18,472.199ZM1456.06,468.776C1455.92,468.066 1455.27,467.529 1454.5,467.529C1453.73,467.529 1453.08,468.066 1452.94,468.776L1456.06,468.776Z" style="fill:rgb(147,147,147);"/>
    </g>
</svg>
