<?xml version="1.0" encoding="UTF-8" standalone="no"?>
<!DOCTYPE svg PUBLIC "-//W3C//DTD SVG 1.1//EN" "http://www.w3.org/Graphics/SVG/1.1/DTD/svg11.dtd">
<svg width="100%" height="100%" viewBox="0 0 60 60" version="1.1" xmlns="http://www.w3.org/2000/svg" xmlns:xlink="http://www.w3.org/1999/xlink" xml:space="preserve" xmlns:serif="http://www.serif.com/" style="fill-rule:evenodd;clip-rule:evenodd;stroke-linecap:round;stroke-linejoin:round;">
    <g transform="matrix(1.08709,0,0,1.10749,-22.4482,7.71023)">
        <g transform="matrix(2.42764,0,0,2.42764,20.7909,2.59761)">
            <path d="M15.808,7.472C15.836,7.472 15.865,8.469 15.892,8.465L15.892,10.244C15.892,11.072 15.22,11.744 14.392,11.744L2,11.744C1.172,11.744 0.5,11.072 0.5,10.244L0.5,8.471C0.511,8.472 0.489,7.473 0.5,7.473L15.808,7.472ZM15.892,7.479C15.865,7.474 15.836,7.472 15.808,7.472L0.5,7.473C0.489,7.473 0.511,7.472 0.5,7.473L0.5,2C0.5,1.172 1.172,0.5 2,0.5L14.392,0.5C15.22,0.5 15.892,1.172 15.892,2L15.892,7.479Z" style="fill:none;stroke:white;stroke-width:1px;"/>
        </g>
        <g transform="matrix(2.42764,0,0,2.42764,20.7909,2.59761)">
            <path d="M15.892,7.477C15.921,7.477 15.865,8.469 15.892,8.465L15.892,10.244C15.892,11.072 15.22,11.744 14.392,11.744L2,11.744C1.172,11.744 0.5,11.072 0.5,10.244L0.5,8.471C0.511,8.472 0.489,7.473 0.5,7.473L15.892,7.477ZM15.892,7.479C15.865,7.474 15.921,7.479 15.892,7.479L0.5,7.473C0.489,7.473 0.511,7.472 0.5,7.473L0.5,2C0.5,1.172 1.172,0.5 2,0.5L14.392,0.5C15.22,0.5 15.892,1.172 15.892,2L15.892,7.479Z" style="fill:none;stroke:white;stroke-width:1px;"/>
        </g>
        <g transform="matrix(2.42764,0,0,2.42764,20.7909,2.59761)">
            <path d="M15.892,7.477C15.921,7.477 15.865,8.469 15.892,8.465L15.892,10.244C15.892,11.072 15.22,11.744 14.392,11.744L2,11.744C1.172,11.744 0.5,11.072 0.5,10.244L0.5,8.471C0.511,8.472 0.489,7.473 0.5,7.473L15.892,7.477ZM15.892,7.479C15.865,7.474 15.921,7.479 15.892,7.479L0.5,7.473C0.489,7.473 0.511,7.472 0.5,7.473L0.5,2C0.5,1.172 1.172,0.5 2,0.5L14.392,0.5C15.22,0.5 15.892,1.172 15.892,2L15.892,7.479Z" style="fill:none;stroke:white;stroke-width:1px;"/>
        </g>
        <g transform="matrix(2.42764,0,0,2.42764,20.7909,2.59761)">
            <path d="M4.455,13.941L11.887,13.941" style="fill:none;stroke:white;stroke-width:1px;"/>
        </g>
        <g transform="matrix(2.42764,0,0,2.42764,20.7909,2.59761)">
            <circle cx="8.196" cy="9.801" r="0.483" style="fill:white;"/>
        </g>
    </g>
</svg>
