<?xml version="1.0" encoding="UTF-8" standalone="no"?>
<!DOCTYPE svg PUBLIC "-//W3C//DTD SVG 1.1//EN" "http://www.w3.org/Graphics/SVG/1.1/DTD/svg11.dtd">
<svg width="100%" height="100%" viewBox="0 0 20 20" version="1.1" xmlns="http://www.w3.org/2000/svg" xmlns:xlink="http://www.w3.org/1999/xlink" xml:space="preserve" xmlns:serif="http://www.serif.com/" style="fill-rule:evenodd;clip-rule:evenodd;stroke-linejoin:round;stroke-miterlimit:1.41421;">
    <g id="Shape-1" serif:id="Shape 1" transform="matrix(1,0,0,1,-1411.5,-466.024)">
        <path d="M1420.3,469.22C1420.69,469.227 1420.99,469.539 1420.99,469.92C1420.99,470.305 1420.68,470.62 1420.3,470.62L1413.7,470.62C1413.53,470.62 1413.4,470.756 1413.4,470.927L1413.4,483.292C1413.4,483.463 1413.53,483.599 1413.7,483.599L1426.06,483.599C1426.24,483.592 1426.36,483.459 1426.36,483.292L1426.36,476.964C1426.36,476.579 1426.68,476.264 1427.06,476.264C1427.45,476.264 1427.76,476.579 1427.76,476.964L1427.76,483.292C1427.76,484.233 1427,484.999 1426.06,484.999L1413.7,484.999C1412.77,484.999 1412,484.233 1412,483.292L1412,470.927C1412,469.99 1412.76,469.227 1413.7,469.22L1420.3,469.22ZM1430.97,469.916C1430.94,469.854 1430.93,469.776 1430.91,469.698C1430.87,469.492 1430.83,469.263 1430.72,469.029C1430.14,467.699 1429.17,466.754 1427.86,466.221C1427.57,466.104 1427.29,466.07 1427.04,466.042L1426.98,466.034C1426.69,465.999 1426.26,466.038 1425.86,466.447C1424.16,468.154 1422.44,469.885 1420.76,471.561L1419.53,472.786C1419.26,473.063 1419.14,473.175 1419.09,473.234C1419.03,473.292 1419.03,473.292 1418.98,473.339C1418.93,473.389 1418.83,473.498 1418.52,473.805C1418.25,474.082 1418.26,474.525 1418.53,474.797C1418.81,475.07 1419.25,475.066 1419.52,474.79C1419.83,474.478 1419.93,474.369 1419.98,474.319C1420.03,474.276 1420.03,474.276 1420.08,474.225C1420.14,474.167 1420.25,474.054 1420.52,473.778L1421.75,472.549C1423.43,470.873 1425.16,469.142 1426.86,467.431L1426.86,467.427L1426.87,467.427C1427.05,467.45 1427.22,467.469 1427.34,467.516C1428.32,467.913 1429.01,468.594 1429.44,469.59C1429.49,469.691 1429.52,469.831 1429.55,469.982C1429.56,470.021 1429.57,470.056 1429.57,470.095C1429.57,470.099 1429.57,470.103 1429.56,470.11C1426.76,472.903 1423.85,475.816 1420.65,479.021C1420.64,479.037 1420.64,479.037 1420.61,479.045C1419.54,479.27 1418.45,479.5 1417.4,479.721L1417.23,479.756L1417.26,479.612C1417.49,478.543 1417.72,477.438 1417.96,476.353C1418.04,475.976 1417.8,475.602 1417.43,475.521C1417.05,475.439 1416.68,475.676 1416.6,476.054C1416.36,477.143 1416.13,478.251 1415.9,479.325L1415.77,479.931C1415.69,480.305 1415.8,480.682 1416.06,480.939C1416.26,481.141 1416.53,481.25 1416.82,481.25C1416.9,481.25 1416.99,481.242 1417.07,481.223L1417.7,481.09C1418.75,480.868 1419.84,480.639 1420.9,480.414C1421.2,480.352 1421.44,480.219 1421.65,480.009C1424.85,476.804 1427.76,473.891 1430.55,471.099C1430.81,470.838 1430.96,470.527 1430.99,470.153C1431,470.075 1430.99,469.994 1430.97,469.916Z" style="fill:rgb(148,148,148);"/>
    </g>
</svg>
