<?xml version="1.0" encoding="UTF-8" standalone="no"?>
<!DOCTYPE svg PUBLIC "-//W3C//DTD SVG 1.1//EN" "http://www.w3.org/Graphics/SVG/1.1/DTD/svg11.dtd">
<svg width="100%" height="100%" viewBox="0 0 482 482" version="1.1" xmlns="http://www.w3.org/2000/svg" xmlns:xlink="http://www.w3.org/1999/xlink" xml:space="preserve" xmlns:serif="http://www.serif.com/" style="fill-rule:evenodd;clip-rule:evenodd;stroke-linejoin:round;stroke-miterlimit:1.41421;">
    <g transform="matrix(0.879502,0,0,0.879502,52.4922,29.0447)">
        <path d="M422.982,348.553C380.829,324.086 350.023,283.983 337.259,236.946L316.473,159.233C301.125,101.56 249.857,60.718 190.212,58.649L182.433,29.623C176.718,8.299 154.8,-4.352 133.476,1.362C112.159,7.077 99.508,28.991 105.219,50.311L112.987,79.322C62.469,111.018 38.517,171.946 53.928,229.557L74.714,307.27C78.883,322.81 80.994,338.834 80.994,354.924C80.987,387.154 72.524,418.815 56.454,446.752C51.906,454.383 52.515,464.028 57.988,471.023C62.11,476.445 68.527,479.63 75.334,479.634C77.255,479.63 79.168,479.381 81.018,478.881L195.954,448.095C204.78,468.611 224.941,481.93 247.277,482C263.269,482.023 278.504,475.196 289.125,463.24C299.747,451.288 304.739,435.354 302.834,419.479L417.775,388.692C427.393,386.108 434.04,377.349 433.943,367.395C433.962,359.596 429.77,352.39 422.982,348.553ZM123.054,27.976C127.34,20.552 135.264,15.981 143.84,15.985C154.707,15.953 164.227,23.253 167.022,33.757L173.775,58.993C173.018,59.059 172.272,59.207 171.515,59.289C168.997,59.543 166.499,59.867 164.016,60.257C162.697,60.464 161.378,60.679 160.066,60.929C157.299,61.46 154.562,62.065 151.857,62.736C151.256,62.888 150.651,62.974 150.058,63.134C149.465,63.294 149.09,63.454 148.602,63.591C145.549,64.43 142.54,65.379 139.577,66.429C138.777,66.706 138.027,66.995 137.251,67.283C134.167,68.435 131.13,69.692 128.144,71.058C127.914,71.16 127.668,71.242 127.434,71.351L120.688,46.17C119.01,40.034 119.861,33.48 123.054,27.976ZM287.197,423.69C288.31,442.63 275.951,459.742 257.621,464.645C239.29,469.54 220.042,460.894 211.525,443.941L287.197,423.69ZM413.563,373.27L76.845,463.447C74.542,464.095 72.075,463.248 70.65,461.319C69.151,459.438 68.991,456.819 70.252,454.773C87.747,424.401 96.963,389.972 96.983,354.924C96.987,337.432 94.692,320.019 90.148,303.129L69.362,225.423C55.22,172.657 78.5,116.994 126.005,90.009L126.145,89.947C132.859,86.262 139.913,83.233 147.204,80.899C149.507,80.137 151.736,79.228 154.094,78.611C162.17,76.472 170.445,75.172 178.791,74.727C180.555,74.63 182.324,74.524 184.088,74.509L185.321,74.509C239.56,74.52 287.018,110.99 300.996,163.398L321.782,241.119C335.674,292.242 369.169,335.824 414.996,362.406C416.834,363.39 417.974,365.311 417.954,367.395C418.044,370.135 416.221,372.575 413.563,373.262L413.563,373.27Z" style="fill:rgb(86,86,86);fill-rule:nonzero;"/>
    </g>
</svg>
