<?xml version="1.0" encoding="UTF-8" standalone="no"?>
<!DOCTYPE svg PUBLIC "-//W3C//DTD SVG 1.1//EN" "http://www.w3.org/Graphics/SVG/1.1/DTD/svg11.dtd">
<svg width="100%" height="100%" viewBox="0 0 194 26" version="1.1" xmlns="http://www.w3.org/2000/svg" xmlns:xlink="http://www.w3.org/1999/xlink" xml:space="preserve" xmlns:serif="http://www.serif.com/" style="fill-rule:evenodd;clip-rule:evenodd;">
    <g transform="matrix(0.901931,0,0,0.901931,1.79421,-7.29345)">
        <circle cx="13.5" cy="22.5" r="10.5" style="fill:none;stroke:rgb(86,37,165);stroke-width:6px;"/>
    </g>
    <g transform="matrix(1,0,0,1,1.5,-9.5)">
        <path d="M59.21,12.15L59.21,33L55.79,33L55.79,18.72L49.43,33L47.06,33L40.67,18.72L40.67,33L37.25,33L37.25,12.15L40.94,12.15L48.26,28.5L55.55,12.15L59.21,12.15ZM80.055,12.15L73.155,25.44L73.155,33L69.735,33L69.735,25.44L62.805,12.15L66.615,12.15L71.445,22.38L76.275,12.15L80.055,12.15ZM105.832,12.15L105.832,14.94L100.282,14.94L100.282,33L96.862,33L96.862,14.94L91.282,14.94L91.282,12.15L105.832,12.15ZM126.846,12.15L126.846,33L123.426,33L123.426,23.88L113.616,23.88L113.616,33L110.196,33L110.196,12.15L113.616,12.15L113.616,21.09L123.426,21.09L123.426,12.15L126.846,12.15ZM135.668,14.91L135.668,21.03L142.868,21.03L142.868,23.82L135.668,23.82L135.668,30.21L143.768,30.21L143.768,33L132.248,33L132.248,12.12L143.768,12.12L143.768,14.91L135.668,14.91ZM170.84,12.15L170.84,33L167.42,33L167.42,18.72L161.06,33L158.69,33L152.3,18.72L152.3,33L148.88,33L148.88,12.15L152.57,12.15L159.89,28.5L167.18,12.15L170.84,12.15ZM179.656,14.91L179.656,21.03L186.856,21.03L186.856,23.82L179.656,23.82L179.656,30.21L187.756,30.21L187.756,33L176.236,33L176.236,12.12L187.756,12.12L187.756,14.91L179.656,14.91Z" style="fill:rgb(86,37,165);fill-rule:nonzero;"/>
    </g>
</svg>
