<?xml version="1.0" encoding="UTF-8" standalone="no"?>
<!DOCTYPE svg PUBLIC "-//W3C//DTD SVG 1.1//EN" "http://www.w3.org/Graphics/SVG/1.1/DTD/svg11.dtd">
<svg width="100%" height="100%" viewBox="0 0 30 30" version="1.1" xmlns="http://www.w3.org/2000/svg" xmlns:xlink="http://www.w3.org/1999/xlink" xml:space="preserve" xmlns:serif="http://www.serif.com/" style="fill-rule:evenodd;clip-rule:evenodd;stroke-linecap:round;stroke-linejoin:round;">
    <g id="Path-1" serif:id="Path 1" transform="matrix(0.973236,0,0,1,5.29684,3.75)">
        <path d="M8.2,1.25C6.14,1.25 4.48,3.32 4.48,5.88C4.48,9.6 5.52,8.48 6.04,9.63C6.17,9.93 6.22,10.66 6.04,10.93C4.52,13.15 1.75,11.44 1.75,15.66C1.75,16.67 1.75,17.29 3.11,17.63M8.2,1.25C8.84,1.25 9.44,1.45 9.97,1.8C10.25,1.99 10.52,2.23 10.75,2.51M11.73,4.55C9.68,4.55 8.01,6.62 8.01,9.17C8.01,12.9 9.05,11.78 9.57,12.93C9.7,13.23 9.75,13.96 9.57,14.23C8.06,16.44 5.28,14.74 5.28,18.96C5.28,20.65 5.28,21.25 11.73,21.25M11.73,4.55C13.79,4.55 15.46,6.62 15.46,9.17C15.46,12.9 14.42,11.78 13.9,12.93C13.77,13.23 13.72,13.96 13.9,14.23C15.41,16.44 18.19,14.74 18.19,18.96C18.19,20.65 18.19,21.25 11.73,21.25" style="fill:none;stroke:rgb(85,37,165);stroke-width:1.1px;"/>
    </g>
</svg>
