<?xml version="1.0" encoding="UTF-8" standalone="no"?>
<!DOCTYPE svg PUBLIC "-//W3C//DTD SVG 1.1//EN" "http://www.w3.org/Graphics/SVG/1.1/DTD/svg11.dtd">
<svg width="100%" height="100%" viewBox="0 0 60 60" version="1.1" xmlns="http://www.w3.org/2000/svg" xmlns:xlink="http://www.w3.org/1999/xlink" xml:space="preserve" xmlns:serif="http://www.serif.com/" style="fill-rule:evenodd;clip-rule:evenodd;">
    <g transform="matrix(1,0,0,1,-6.95714,-6.9317)">
        <g transform="matrix(0.778403,0,0,0.778403,7.66739,10.7435)">
            <path d="M44.321,11.477L0.755,11.477L0.755,7.254C0.755,3.664 3.666,0.754 7.255,0.754L37.821,0.754C41.411,0.754 44.321,3.664 44.321,7.254L44.321,11.477ZM0.755,12.477L44.321,12.477L44.321,53.771L0.755,53.771L0.755,12.477ZM0.755,54.771L44.321,54.771L44.321,60.033C44.321,63.623 41.411,66.533 37.821,66.533L7.255,66.533C3.666,66.533 0.755,63.623 0.755,60.033L0.755,54.771Z" style="fill:none;stroke:white;stroke-width:2.83px;"/>
        </g>
        <g transform="matrix(0.778403,0,0,0.778403,7.62744,9.90359)">
            <path d="M18.598,7.205L26.581,7.205" style="fill:none;stroke:white;stroke-width:1.93px;stroke-linecap:round;stroke-linejoin:round;"/>
        </g>
        <g transform="matrix(0.778403,0,0,0.778403,7.66739,11.1349)">
            <path d="M24.762,60.304C24.762,59.077 23.766,58.08 22.538,58.08C21.311,58.08 20.315,59.077 20.315,60.304L20.315,60.69C20.315,61.917 21.311,62.914 22.538,62.914C23.766,62.914 24.762,61.917 24.762,60.69L24.762,60.304Z" style="fill:white;"/>
        </g>
    </g>
</svg>
